<svg xmlns="http://www.w3.org/2000/svg" xmlns:xlink="http://www.w3.org/1999/xlink" viewBox="0 0 1024 1024"><defs><style>.a{fill:none;}.b{isolation:isolate;}.c{clip-path:url(#a);}.d{fill:url(#b);}.aa,.e,.i,.k,.m,.o,.u,.w,.y{opacity:0.1;}.e,.s{mix-blend-mode:color-burn;}.e{fill:url(#c);}.f,.s,.t{opacity:0.15;}.f{mix-blend-mode:lighten;fill:url(#d);}.ab,.g,.j,.l,.n,.p,.v,.x,.z{opacity:0.3;}.h{fill:#a4cccf;}.aa,.ab,.h,.i,.j,.k,.l,.m,.n,.o,.p,.u,.v,.w,.x,.y,.z{fill-rule:evenodd;}.aa,.i,.k,.m,.o,.u,.w,.y{mix-blend-mode:multiply;}.i{fill:url(#e);}.ab,.j,.l,.n,.p,.t,.v,.x,.z{mix-blend-mode:overlay;}.j{fill:url(#f);}.k{fill:url(#g);}.l{fill:url(#h);}.m{fill:url(#i);}.n{fill:url(#j);}.o{fill:url(#k);}.p{fill:url(#l);}.q{fill:url(#m);}.r{fill:#ffbf00;}.s{fill:url(#n);}.t{fill:url(#o);}.u{fill:url(#p);}.v{fill:url(#q);}.w{fill:url(#r);}.x{fill:url(#s);}.y{fill:url(#t);}.z{fill:url(#u);}.aa{fill:url(#v);}.ab{fill:url(#w);}</style><clipPath id="a"><circle class="a" cx="512" cy="512" r="512"/></clipPath><linearGradient id="b" x1="512" x2="512" y2="1024" gradientUnits="userSpaceOnUse"><stop offset="0" stop-color="#a4cccf"/><stop offset="0.05" stop-color="#a0cacd"/><stop offset="0.44" stop-color="#81b8bd"/><stop offset="0.77" stop-color="#6faeb3"/><stop offset="1" stop-color="#68aaaf"/></linearGradient><linearGradient id="c" x1="1024" y1="512" x2="0" y2="512" gradientUnits="userSpaceOnUse"><stop offset="0"/><stop offset="1" stop-color="#fff" stop-opacity="0"/></linearGradient><linearGradient id="d" x2="1024" y2="1024" gradientUnits="userSpaceOnUse"><stop offset="0" stop-color="#fff"/><stop offset="0.05" stop-color="#d0d0d0" stop-opacity="0.81"/><stop offset="0.12" stop-color="#999" stop-opacity="0.6"/><stop offset="0.19" stop-color="#6a6a6a" stop-opacity="0.42"/><stop offset="0.26" stop-color="#444" stop-opacity="0.27"/><stop offset="0.33" stop-color="#262626" stop-opacity="0.15"/><stop offset="0.4" stop-color="#111" stop-opacity="0.07"/><stop offset="0.46" stop-color="#040404" stop-opacity="0.02"/><stop offset="0.52" stop-opacity="0"/></linearGradient><linearGradient id="e" x1="813.8" y1="1148.49" x2="813.8" y2="523.73" gradientTransform="translate(2.38 -179.45)" xlink:href="#c"/><linearGradient id="f" x1="813.8" y1="1148.49" x2="813.8" y2="523.73" gradientTransform="translate(2.38 -179.45)" gradientUnits="userSpaceOnUse"><stop offset="0.45" stop-opacity="0"/><stop offset="0.45" stop-color="#020202" stop-opacity="0.01"/><stop offset="0.61" stop-color="#5a5a5a" stop-opacity="0.35"/><stop offset="0.75" stop-color="#a1a1a1" stop-opacity="0.63"/><stop offset="0.87" stop-color="#d4d4d4" stop-opacity="0.83"/><stop offset="0.95" stop-color="#f3f3f3" stop-opacity="0.95"/><stop offset="1" stop-color="#fff"/></linearGradient><linearGradient id="g" x1="141.8" y1="1015.8" x2="141.8" y2="367.07" gradientTransform="translate(2.38 -179.45)" xlink:href="#c"/><linearGradient id="h" x1="141.8" y1="1015.8" x2="141.8" y2="367.07" xlink:href="#f"/><linearGradient id="i" x1="1119.8" y1="934.8" x2="1119.8" y2="286.07" gradientTransform="translate(2.38 -179.45)" xlink:href="#c"/><linearGradient id="j" x1="1119.8" y1="934.8" x2="1119.8" y2="286.07" xlink:href="#f"/><linearGradient id="k" x1="378.22" y1="1064.23" x2="378.22" y2="515" xlink:href="#c"/><linearGradient id="l" x1="378.22" y1="1064.23" x2="378.22" y2="515" gradientUnits="userSpaceOnUse"><stop offset="0.37" stop-opacity="0"/><stop offset="0.76" stop-color="#a0a0a0" stop-opacity="0.63"/><stop offset="1" stop-color="#fff"/></linearGradient><radialGradient id="m" cx="512" cy="512" r="388" gradientUnits="userSpaceOnUse"><stop offset="0.46" stop-color="#ffbf00"/><stop offset="0.48" stop-color="#ffbf00" stop-opacity="0.95"/><stop offset="0.56" stop-color="#ffbf00" stop-opacity="0.7"/><stop offset="0.65" stop-color="#ffbf00" stop-opacity="0.49"/><stop offset="0.73" stop-color="#ffbf00" stop-opacity="0.31"/><stop offset="0.81" stop-color="#ffbf00" stop-opacity="0.18"/><stop offset="0.88" stop-color="#ffbf00" stop-opacity="0.08"/><stop offset="0.95" stop-color="#ffbf00" stop-opacity="0.02"/><stop offset="1" stop-color="#ffbf00" stop-opacity="0"/></radialGradient><linearGradient id="n" x1="410.95" y1="336.98" x2="613.05" y2="687.02" gradientUnits="userSpaceOnUse"><stop offset="0" stop-color="#fff" stop-opacity="0"/><stop offset="1"/></linearGradient><linearGradient id="o" x1="423.53" y1="385.65" x2="655.29" y2="716.64" gradientTransform="translate(512 -212.08) rotate(45)" gradientUnits="userSpaceOnUse"><stop offset="0" stop-color="#fff"/><stop offset="0.25" stop-opacity="0"/></linearGradient><linearGradient id="p" x1="331.82" y1="883" x2="331.82" y2="467.9" xlink:href="#c"/><linearGradient id="q" x1="331.82" y1="883" x2="331.82" y2="467.9" xlink:href="#l"/><linearGradient id="r" x1="645.95" y1="180.45" x2="645.95" y2="112.9" xlink:href="#c"/><linearGradient id="s" x1="645.95" y1="180.45" x2="645.95" y2="112.9" gradientUnits="userSpaceOnUse"><stop offset="0.22" stop-opacity="0"/><stop offset="0.26" stop-color="#242424" stop-opacity="0.14"/><stop offset="0.3" stop-color="#515151" stop-opacity="0.32"/><stop offset="0.35" stop-color="#7b7b7b" stop-opacity="0.48"/><stop offset="0.41" stop-color="#9f9f9f" stop-opacity="0.62"/><stop offset="0.46" stop-color="#bdbdbd" stop-opacity="0.74"/><stop offset="0.53" stop-color="#d5d5d5" stop-opacity="0.84"/><stop offset="0.6" stop-color="#e8e8e8" stop-opacity="0.91"/><stop offset="0.68" stop-color="#f5f5f5" stop-opacity="0.96"/><stop offset="0.79" stop-color="#fdfdfd" stop-opacity="0.99"/><stop offset="1" stop-color="#fff"/></linearGradient><linearGradient id="t" x1="146" y1="221.45" x2="146" y2="87.59" xlink:href="#c"/><linearGradient id="u" x1="146" y1="221.45" x2="146" y2="87.59" xlink:href="#s"/><linearGradient id="v" x1="1163.3" y1="1066.22" x2="1163.3" y2="726.62" gradientTransform="matrix(-1, 0, 0, 1, 1700.98, -179.45)" xlink:href="#c"/><linearGradient id="w" x1="1163.3" y1="1066.22" x2="1163.3" y2="726.62" gradientTransform="matrix(-1, 0, 0, 1, 1700.98, -179.45)" xlink:href="#f"/></defs><title>Artboard 1</title><g class="b"><g class="c"><rect class="d" width="1024" height="1024"/><rect class="e" width="1024" height="1024"/><rect class="f" width="1024" height="1024"/><g class="g"><path class="h" d="M1285.66,596h-.09a13,13,0,0,1-12.4-9.35A192.9,192.9,0,0,0,1025,459.6a45.46,45.46,0,0,1-48.85-12.15,312.48,312.48,0,0,0-454.72-9.91,44.5,44.5,0,0,1-36.76,12.79,234.76,234.76,0,0,0-29.79-1.39C328,451.14,226.19,556.69,228.4,683.5,230.59,808.91,333,909.9,458.94,909.9a230.44,230.44,0,0,0,71.59-11.34,22.43,22.43,0,0,1,20.75,3.89A311.14,311.14,0,0,0,744.12,969c107.15,0,201.71-53.92,258-136.09a22.24,22.24,0,0,1,25.32-8.74,193.26,193.26,0,0,0,151.19-12.48,22.6,22.6,0,0,1,25,2.36,122.4,122.4,0,0,0,81.94,27.49c63.24-2.22,115-53,118.28-116.14C1407.52,654.6,1355.72,596,1285.66,596Z"/><path class="i" d="M1285.66,596h-.09a13,13,0,0,1-12.4-9.35A192.9,192.9,0,0,0,1025,459.6a45.46,45.46,0,0,1-48.85-12.15,312.48,312.48,0,0,0-454.72-9.91,44.5,44.5,0,0,1-36.76,12.79,234.76,234.76,0,0,0-29.79-1.39C328,451.14,226.19,556.69,228.4,683.5,230.59,808.91,333,909.9,458.94,909.9a230.44,230.44,0,0,0,71.59-11.34,22.43,22.43,0,0,1,20.75,3.89A311.14,311.14,0,0,0,744.12,969c107.15,0,201.71-53.92,258-136.09a22.24,22.24,0,0,1,25.32-8.74,193.26,193.26,0,0,0,151.19-12.48,22.6,22.6,0,0,1,25,2.36,122.4,122.4,0,0,0,81.94,27.49c63.24-2.22,115-53,118.28-116.14C1407.52,654.6,1355.72,596,1285.66,596Z"/><path class="j" d="M1285.66,596h-.09a13,13,0,0,1-12.4-9.35A192.9,192.9,0,0,0,1025,459.6a45.46,45.46,0,0,1-48.85-12.15,312.48,312.48,0,0,0-454.72-9.91,44.5,44.5,0,0,1-36.76,12.79,234.76,234.76,0,0,0-29.79-1.39C328,451.14,226.19,556.69,228.4,683.5,230.59,808.91,333,909.9,458.94,909.9a230.44,230.44,0,0,0,71.59-11.34,22.43,22.43,0,0,1,20.75,3.89A311.14,311.14,0,0,0,744.12,969c107.15,0,201.71-53.92,258-136.09a22.24,22.24,0,0,1,25.32-8.74,193.26,193.26,0,0,0,151.19-12.48,22.6,22.6,0,0,1,25,2.36,122.4,122.4,0,0,0,81.94,27.49c63.24-2.22,115-53,118.28-116.14C1407.52,654.6,1355.72,596,1285.66,596Z"/></g><g class="g"><path class="h" d="M631.67,449h-.1a13.46,13.46,0,0,1-12.87-9.71A200.3,200.3,0,0,0,361,307.37a47.21,47.21,0,0,1-50.72-12.62A323.65,323.65,0,0,0,69.36,187.62a323.53,323.53,0,0,0-231.24,96.84A46.2,46.2,0,0,1-200,297.75,241.69,241.69,0,0,0-231,296.3c-131.72,2.28-237.46,111.88-235.16,243.56,2.27,130.22,108.58,235.08,239.38,235.08a239.13,239.13,0,0,0,74.34-11.78,23.27,23.27,0,0,1,21.54,4A323.08,323.08,0,0,0,69.36,836.35c111.26,0,209.44-56,267.89-141.31a23.12,23.12,0,0,1,26.3-9.08,200.63,200.63,0,0,0,157-13,23.47,23.47,0,0,1,25.91,2.45A127.09,127.09,0,0,0,631.53,704c65.67-2.3,119.38-55,122.82-120.6C758.2,509.85,704.41,449,631.67,449Z"/><path class="k" d="M631.67,449h-.1a13.46,13.46,0,0,1-12.87-9.71A200.3,200.3,0,0,0,361,307.37a47.21,47.21,0,0,1-50.72-12.62A323.65,323.65,0,0,0,69.36,187.62a323.53,323.53,0,0,0-231.24,96.84A46.2,46.2,0,0,1-200,297.75,241.69,241.69,0,0,0-231,296.3c-131.72,2.28-237.46,111.88-235.16,243.56,2.27,130.22,108.58,235.08,239.38,235.08a239.13,239.13,0,0,0,74.34-11.78,23.27,23.27,0,0,1,21.54,4A323.08,323.08,0,0,0,69.36,836.35c111.26,0,209.44-56,267.89-141.31a23.12,23.12,0,0,1,26.3-9.08,200.63,200.63,0,0,0,157-13,23.47,23.47,0,0,1,25.91,2.45A127.09,127.09,0,0,0,631.53,704c65.67-2.3,119.38-55,122.82-120.6C758.2,509.85,704.41,449,631.67,449Z"/><path class="l" d="M631.67,449h-.1a13.46,13.46,0,0,1-12.87-9.71A200.3,200.3,0,0,0,361,307.37a47.21,47.21,0,0,1-50.72-12.62A323.65,323.65,0,0,0,69.36,187.62a323.53,323.53,0,0,0-231.24,96.84A46.2,46.2,0,0,1-200,297.75,241.69,241.69,0,0,0-231,296.3c-131.72,2.28-237.46,111.88-235.16,243.56,2.27,130.22,108.58,235.08,239.38,235.08a239.13,239.13,0,0,0,74.34-11.78,23.27,23.27,0,0,1,21.54,4A323.08,323.08,0,0,0,69.36,836.35c111.26,0,209.44-56,267.89-141.31a23.12,23.12,0,0,1,26.3-9.08,200.63,200.63,0,0,0,157-13,23.47,23.47,0,0,1,25.91,2.45A127.09,127.09,0,0,0,631.53,704c65.67-2.3,119.38-55,122.82-120.6C758.2,509.85,704.41,449,631.67,449Z"/></g><g class="g"><path class="h" d="M1609.67,368h-.1a13.46,13.46,0,0,1-12.87-9.71A200.3,200.3,0,0,0,1339,226.37a47.21,47.21,0,0,1-50.72-12.62,324.49,324.49,0,0,0-472.17-10.29A46.2,46.2,0,0,1,778,216.75,241.69,241.69,0,0,0,747,215.3C615.3,217.58,509.56,327.18,511.86,458.86c2.27,130.22,108.58,235.08,239.38,235.08a239.13,239.13,0,0,0,74.34-11.78,23.27,23.27,0,0,1,21.54,4,323.08,323.08,0,0,0,200.24,69.15c111.26,0,209.44-56,267.89-141.31a23.12,23.12,0,0,1,26.3-9.08,200.63,200.63,0,0,0,157-13,23.47,23.47,0,0,1,25.91,2.45A127.09,127.09,0,0,0,1609.53,623c65.67-2.3,119.38-55,122.82-120.6C1736.2,428.85,1682.41,368,1609.67,368Z"/><path class="m" d="M1609.67,368h-.1a13.46,13.46,0,0,1-12.87-9.71A200.3,200.3,0,0,0,1339,226.37a47.21,47.21,0,0,1-50.72-12.62,324.49,324.49,0,0,0-472.17-10.29A46.2,46.2,0,0,1,778,216.75,241.69,241.69,0,0,0,747,215.3C615.3,217.58,509.56,327.18,511.86,458.86c2.27,130.22,108.58,235.08,239.38,235.08a239.13,239.13,0,0,0,74.34-11.78,23.27,23.27,0,0,1,21.54,4,323.08,323.08,0,0,0,200.24,69.15c111.26,0,209.44-56,267.89-141.31a23.12,23.12,0,0,1,26.3-9.08,200.63,200.63,0,0,0,157-13,23.47,23.47,0,0,1,25.91,2.45A127.09,127.09,0,0,0,1609.53,623c65.67-2.3,119.38-55,122.82-120.6C1736.2,428.85,1682.41,368,1609.67,368Z"/><path class="n" d="M1609.67,368h-.1a13.46,13.46,0,0,1-12.87-9.71A200.3,200.3,0,0,0,1339,226.37a47.21,47.21,0,0,1-50.72-12.62,324.49,324.49,0,0,0-472.17-10.29A46.2,46.2,0,0,1,778,216.75,241.69,241.69,0,0,0,747,215.3C615.3,217.58,509.56,327.18,511.86,458.86c2.27,130.22,108.58,235.08,239.38,235.08a239.13,239.13,0,0,0,74.34-11.78,23.27,23.27,0,0,1,21.54,4,323.08,323.08,0,0,0,200.24,69.15c111.26,0,209.44-56,267.89-141.31a23.12,23.12,0,0,1,26.3-9.08,200.63,200.63,0,0,0,157-13,23.47,23.47,0,0,1,25.91,2.45A127.09,127.09,0,0,0,1609.53,623c65.67-2.3,119.38-55,122.82-120.6C1736.2,428.85,1682.41,368,1609.67,368Z"/></g><g class="g"><path class="h" d="M858.17,785.6c-3-85.2-71-155.47-156.06-161.2A167.56,167.56,0,0,0,637,632.79a34,34,0,0,1-37.68-11.52,274.45,274.45,0,0,0-394.78-40.81,34.64,34.64,0,0,1-32.7,6.67,211.82,211.82,0,0,0-74.5-8.87c-107.7,6.27-194.32,94.22-198.95,202-5.22,121.19,91.49,221.07,211.52,221.07a211.24,211.24,0,0,0,61.85-9.21,34.74,34.74,0,0,1,32.79,6.65A274.47,274.47,0,0,0,597,960.94a34.19,34.19,0,0,1,38-11A167.75,167.75,0,0,0,858.17,785.6Z"/><path class="o" d="M858.17,785.6c-3-85.2-71-155.47-156.06-161.2A167.56,167.56,0,0,0,637,632.79a34,34,0,0,1-37.68-11.52,274.45,274.45,0,0,0-394.78-40.81,34.64,34.64,0,0,1-32.7,6.67,211.82,211.82,0,0,0-74.5-8.87c-107.7,6.27-194.32,94.22-198.95,202-5.22,121.19,91.49,221.07,211.52,221.07a211.24,211.24,0,0,0,61.85-9.21,34.74,34.74,0,0,1,32.79,6.65A274.47,274.47,0,0,0,597,960.94a34.19,34.19,0,0,1,38-11A167.75,167.75,0,0,0,858.17,785.6Z"/><path class="p" d="M858.17,785.6c-3-85.2-71-155.47-156.06-161.2A167.56,167.56,0,0,0,637,632.79a34,34,0,0,1-37.68-11.52,274.45,274.45,0,0,0-394.78-40.81,34.64,34.64,0,0,1-32.7,6.67,211.82,211.82,0,0,0-74.5-8.87c-107.7,6.27-194.32,94.22-198.95,202-5.22,121.19,91.49,221.07,211.52,221.07a211.24,211.24,0,0,0,61.85-9.21,34.74,34.74,0,0,1,32.79,6.65A274.47,274.47,0,0,0,597,960.94a34.19,34.19,0,0,1,38-11A167.75,167.75,0,0,0,858.17,785.6Z"/></g><circle class="q" cx="512" cy="512" r="388"/><circle class="r" cx="512" cy="512" r="202.06"/><circle class="s" cx="512" cy="512" r="202.06"/><circle class="t" cx="512" cy="512" r="202.03" transform="translate(-212.08 512) rotate(-45)"/><path class="h" d="M694.55,672.42C692.26,608,640.9,554.91,576.61,550.58a126.7,126.7,0,0,0-49.23,6.34,25.73,25.73,0,0,1-28.48-8.7,207.41,207.41,0,0,0-298.36-30.84,26.2,26.2,0,0,1-24.72,5,160.11,160.11,0,0,0-56.3-6.7c-81.4,4.74-146.86,71.21-150.37,152.68A160,160,0,0,0,175.76,828.5a26.26,26.26,0,0,1,24.78,5,207.43,207.43,0,0,0,296.6-28.6,25.85,25.85,0,0,1,28.74-8.3A126.78,126.78,0,0,0,694.55,672.42Z"/><path class="u" d="M694.55,672.42C692.26,608,640.9,554.91,576.61,550.58a126.7,126.7,0,0,0-49.23,6.34,25.73,25.73,0,0,1-28.48-8.7,207.41,207.41,0,0,0-298.36-30.84,26.2,26.2,0,0,1-24.72,5,160.11,160.11,0,0,0-56.3-6.7c-81.4,4.74-146.86,71.21-150.37,152.68A160,160,0,0,0,175.76,828.5a26.26,26.26,0,0,1,24.78,5,207.43,207.43,0,0,0,296.6-28.6,25.85,25.85,0,0,1,28.74-8.3A126.78,126.78,0,0,0,694.55,672.42Z"/><path class="v" d="M694.55,672.42C692.26,608,640.9,554.91,576.61,550.58a126.7,126.7,0,0,0-49.23,6.34,25.73,25.73,0,0,1-28.48-8.7,207.41,207.41,0,0,0-298.36-30.84,26.2,26.2,0,0,1-24.72,5,160.11,160.11,0,0,0-56.3-6.7c-81.4,4.74-146.86,71.21-150.37,152.68A160,160,0,0,0,175.76,828.5a26.26,26.26,0,0,1,24.78,5,207.43,207.43,0,0,0,296.6-28.6,25.85,25.85,0,0,1,28.74-8.3A126.78,126.78,0,0,0,694.55,672.42Z"/><path class="h" d="M705,146.18a20.64,20.64,0,0,0-27.21-18.79,4.19,4.19,0,0,1-4.63-1.42,33.76,33.76,0,0,0-48.56-5,4.25,4.25,0,0,1-4,.82,26,26,0,1,0,0,49.82,4.26,4.26,0,0,1,4,.81,33.76,33.76,0,0,0,48.27-4.65,4.21,4.21,0,0,1,4.68-1.35A20.64,20.64,0,0,0,705,146.18Z"/><path class="w" d="M705,146.18a20.64,20.64,0,0,0-27.21-18.79,4.19,4.19,0,0,1-4.63-1.42,33.76,33.76,0,0,0-48.56-5,4.25,4.25,0,0,1-4,.82,26,26,0,1,0,0,49.82,4.26,4.26,0,0,1,4,.81,33.76,33.76,0,0,0,48.27-4.65,4.21,4.21,0,0,1,4.68-1.35A20.64,20.64,0,0,0,705,146.18Z"/><path class="x" d="M705,146.18a20.64,20.64,0,0,0-27.21-18.79,4.19,4.19,0,0,1-4.63-1.42,33.76,33.76,0,0,0-48.56-5,4.25,4.25,0,0,1-4,.82,26,26,0,1,0,0,49.82,4.26,4.26,0,0,1,4,.81,33.76,33.76,0,0,0,48.27-4.65,4.21,4.21,0,0,1,4.68-1.35A20.64,20.64,0,0,0,705,146.18Z"/><path class="h" d="M263,153.55a40.89,40.89,0,0,0-53.91-37.25,8.28,8.28,0,0,1-9.18-2.81,66.88,66.88,0,0,0-96.21-9.94,8.44,8.44,0,0,1-8,1.62,51.61,51.61,0,1,0,0,98.71,8.47,8.47,0,0,1,8,1.62,66.89,66.89,0,0,0,95.64-9.22,8.34,8.34,0,0,1,9.27-2.68,40.87,40.87,0,0,0,54.39-40Z"/><path class="y" d="M263,153.55a40.89,40.89,0,0,0-53.91-37.25,8.28,8.28,0,0,1-9.18-2.81,66.88,66.88,0,0,0-96.21-9.94,8.44,8.44,0,0,1-8,1.62,51.61,51.61,0,1,0,0,98.71,8.47,8.47,0,0,1,8,1.62,66.89,66.89,0,0,0,95.64-9.22,8.34,8.34,0,0,1,9.27-2.68,40.87,40.87,0,0,0,54.39-40Z"/><path class="z" d="M263,153.55a40.89,40.89,0,0,0-53.91-37.25,8.28,8.28,0,0,1-9.18-2.81,66.88,66.88,0,0,0-96.21-9.94,8.44,8.44,0,0,1-8,1.62,51.61,51.61,0,1,0,0,98.71,8.47,8.47,0,0,1,8,1.62,66.89,66.89,0,0,0,95.64-9.22,8.34,8.34,0,0,1,9.27-2.68,40.87,40.87,0,0,0,54.39-40Z"/><path class="h" d="M282.49,684h.05a7,7,0,0,0,6.74-5.08,104.85,104.85,0,0,1,134.89-69.06,24.72,24.72,0,0,0,26.56-6.61,169.86,169.86,0,0,1,247.17-5.38,24.21,24.21,0,0,0,20,7,127.52,127.52,0,0,1,16.2-.76c68.95,1.2,124.3,58.57,123.1,127.5A125.4,125.4,0,0,1,693,848.46a12.17,12.17,0,0,0-11.27,2.12A169.92,169.92,0,0,1,436.61,812.8,12.11,12.11,0,0,0,422.85,808a105,105,0,0,1-82.18-6.78,12.3,12.3,0,0,0-13.57,1.28,66.77,66.77,0,0,1-108.83-48.18C216.25,715.85,244.41,684,282.49,684Z"/><path class="aa" d="M282.49,684h.05a7,7,0,0,0,6.74-5.08,104.85,104.85,0,0,1,134.89-69.06,24.72,24.72,0,0,0,26.56-6.61,169.86,169.86,0,0,1,247.17-5.38,24.21,24.21,0,0,0,20,7,127.52,127.52,0,0,1,16.2-.76c68.95,1.2,124.3,58.57,123.1,127.5A125.4,125.4,0,0,1,693,848.46a12.17,12.17,0,0,0-11.27,2.12A169.92,169.92,0,0,1,436.61,812.8,12.11,12.11,0,0,0,422.85,808a105,105,0,0,1-82.18-6.78,12.3,12.3,0,0,0-13.57,1.28,66.77,66.77,0,0,1-108.83-48.18C216.25,715.85,244.41,684,282.49,684Z"/><path class="ab" d="M282.49,684h.05a7,7,0,0,0,6.74-5.08,104.85,104.85,0,0,1,134.89-69.06,24.72,24.72,0,0,0,26.56-6.61,169.86,169.86,0,0,1,247.17-5.38,24.21,24.21,0,0,0,20,7,127.52,127.52,0,0,1,16.2-.76c68.95,1.2,124.3,58.57,123.1,127.5A125.4,125.4,0,0,1,693,848.46a12.17,12.17,0,0,0-11.27,2.12A169.92,169.92,0,0,1,436.61,812.8,12.11,12.11,0,0,0,422.85,808a105,105,0,0,1-82.18-6.78,12.3,12.3,0,0,0-13.57,1.28,66.77,66.77,0,0,1-108.83-48.18C216.25,715.85,244.41,684,282.49,684Z"/></g></g></svg>